<svg width="64" height="64" viewBox="0 0 64 64" fill="none" xmlns="http://www.w3.org/2000/svg">
<rect width="64" height="64" rx="4" fill="#252D37"/>
<g clip-path="url(#clip0_1_5)">
<path d="M33.0673 16.86L36.8132 24.922C37.024 25.378 37.4344 25.694 37.9049 25.766L46.2814 27.06C46.5493 27.1019 46.8009 27.2225 47.0077 27.4082C47.2145 27.5939 47.3684 27.8373 47.452 28.111C47.5355 28.3847 47.5455 28.6777 47.4807 28.9571C47.4159 29.2364 47.2789 29.491 47.0852 29.692L41.024 35.968C40.8555 36.1428 40.7295 36.3584 40.6567 36.5963C40.5839 36.8342 40.5665 37.0874 40.6061 37.334L42.0367 46.196C42.0822 46.4798 42.052 46.7714 41.9497 47.038C41.8474 47.3046 41.677 47.5354 41.4578 47.7045C41.2385 47.8737 40.9791 47.9743 40.7089 47.995C40.4387 48.0158 40.1683 47.9558 39.9285 47.822L32.4367 43.638C32.2282 43.5218 31.9963 43.4612 31.7609 43.4612C31.5255 43.4612 31.2936 43.5218 31.0852 43.638L23.5934 47.822C23.3536 47.9553 23.0835 48.0148 22.8136 47.9938C22.5437 47.9727 22.2846 47.872 22.0657 47.703C21.8467 47.534 21.6765 47.3034 21.5743 47.0371C21.4721 46.7708 21.4419 46.4795 21.4871 46.196L22.9176 37.334C22.9577 37.0874 22.9406 36.8341 22.8678 36.5961C22.795 36.358 22.6686 36.1425 22.4998 35.968L16.4386 29.692C16.2448 29.4908 16.1079 29.2361 16.0432 28.9566C15.9785 28.6771 15.9886 28.384 16.0724 28.1103C16.1561 27.8365 16.3103 27.5932 16.5173 27.4076C16.7244 27.222 16.9762 27.1016 17.2442 27.06L25.6188 25.766C25.8515 25.7297 26.0724 25.6339 26.2626 25.4869C26.4527 25.3399 26.6065 25.146 26.7106 24.922L30.4565 16.86C30.577 16.6016 30.7631 16.3841 30.9937 16.232C31.2244 16.08 31.4904 15.9994 31.7619 15.9994C32.0333 15.9994 32.2994 16.08 32.53 16.232C32.7607 16.3841 32.9468 16.6016 33.0673 16.86V16.86Z" fill="#FC7614"/>
</g>
<defs>
<clipPath id="clip0_1_5">
<rect width="32" height="32" fill="white" transform="translate(16 16)"/>
</clipPath>
</defs>
</svg>
